<?xml version="1.0" standalone="no"?>
<!DOCTYPE svg PUBLIC "-//W3C//DTD SVG 20010904//EN"
 "http://www.w3.org/TR/2001/REC-SVG-20010904/DTD/svg10.dtd">
<svg version="1.0" xmlns="http://www.w3.org/2000/svg"
 width="1280.000000pt" height="640.000000pt" viewBox="0 0 1280.000000 640.000000"
 preserveAspectRatio="xMidYMid meet">
<metadata>
Created by potrace 1.15, written by Peter Selinger 2001-2017
</metadata>
<g transform="translate(0.000000,640.000000) scale(0.100000,-0.100000)"
fill="#000000" stroke="none">
<path d="M4630 4657 c-127 -196 -367 -537 -467 -662 -120 -151 -420 -449 -740
-736 l-62 -55 182 -166 c242 -221 504 -483 600 -601 97 -119 295 -397 452
-635 66 -99 122 -181 125 -181 3 0 64 88 137 197 148 222 317 460 413 584 84
108 329 358 550 562 96 88 194 179 218 201 l43 40 -172 155 c-270 244 -543
520 -649 658 -113 147 -314 432 -442 629 -51 78 -95 142 -98 142 -3 0 -43 -59
-90 -132z"/>
<path d="M7912 4770 c-473 -124 -683 -707 -405 -1127 53 -81 147 -171 228
-218 79 -46 135 -110 195 -227 37 -69 90 -198 90 -215 0 -4 -22 27 -50 69
-219 334 -653 412 -967 174 -111 -84 -210 -230 -254 -376 -19 -61 -23 -99 -24
-205 0 -137 10 -194 52 -298 59 -146 188 -290 322 -361 284 -149 630 -75 830
178 27 34 58 79 69 101 29 55 27 31 -4 -51 -38 -102 -98 -211 -155 -281 -126
-159 -336 -278 -532 -303 -38 -4 -70 -10 -72 -12 -2 -2 378 -3 845 -3 466 0
843 3 837 7 -7 4 -26 8 -43 8 -52 0 -203 48 -285 91 -138 72 -267 197 -344
335 -36 62 -98 205 -92 210 2 2 22 -25 45 -61 76 -115 202 -211 344 -263 66
-24 87 -27 208 -27 121 0 142 3 208 27 226 82 386 256 454 495 18 64 22 101
22 208 -1 118 -4 139 -33 225 -91 272 -302 452 -575 491 -235 33 -488 -87
-632 -301 -24 -36 -44 -63 -44 -60 0 13 44 118 74 178 47 94 113 180 182 238
133 112 219 207 262 291 61 117 83 213 84 353 2 181 -47 328 -156 467 -66 84
-121 130 -218 183 -144 78 -314 99 -466 60z"/>
<path d="M10614 4770 c-239 -62 -420 -253 -505 -530 -20 -64 -23 -97 -23 -220
0 -137 1 -150 31 -237 82 -237 195 -398 598 -853 254 -287 353 -409 457 -564
160 -239 256 -491 259 -684 1 -52 3 -60 9 -37 4 17 8 53 9 80 3 107 64 299
145 450 109 206 218 346 637 816 254 285 372 440 451 595 83 162 112 272 112
429 0 241 -86 442 -256 601 -214 200 -532 228 -773 69 -54 -36 -145 -125 -191
-185 -39 -53 -99 -180 -119 -255 l-18 -67 -18 68 c-10 37 -36 104 -58 148
-147 298 -456 453 -747 376z"/>
<path d="M1357 4707 c-16 -162 -88 -346 -203 -517 -112 -167 -217 -286 -629
-710 -297 -306 -426 -483 -489 -673 -85 -254 14 -570 232 -742 123 -98 266
-148 422 -149 115 0 194 19 309 75 100 49 219 160 271 252 18 32 34 56 36 54
2 -2 -8 -34 -21 -73 -87 -241 -237 -416 -439 -514 -91 -44 -212 -80 -268 -80
-20 0 -39 -3 -41 -7 -3 -5 372 -8 833 -8 461 0 837 1 835 3 -1 2 -32 7 -69 13
-80 11 -168 40 -261 86 -197 98 -342 265 -430 499 -35 92 -31 99 12 25 132
-222 411 -359 658 -322 169 25 294 90 412 214 116 122 179 269 190 438 19 305
-105 511 -627 1044 -146 148 -298 307 -338 352 -237 272 -357 507 -381 748
l-7 70 -7 -78z"/>
</g>
</svg>
